<?xml version="1.0" encoding="utf-8"?>
<!-- Generator: Adobe Illustrator 24.0.3, SVG Export Plug-In . SVG Version: 6.00 Build 0)  -->
<svg version="1.1" id="Layer_1" xmlns="http://www.w3.org/2000/svg" xmlns:xlink="http://www.w3.org/1999/xlink" x="0px" y="0px"
	 viewBox="0 0 333.8 313.3" style="enable-background:new 0 0 333.8 313.3;" xml:space="preserve">
<style type="text/css">
	.st0{fill:#265961;}
	.st1{fill:none;stroke:#265961;stroke-linejoin:round;stroke-miterlimit:10;}
</style>
<g>
	<g>
		<path class="st0" d="M0,257.4v-0.1c0-13.7,10.3-25.6,25.3-25.6c15.1,0,25.2,11.8,25.2,25.5v0.1c0,13.7-10.3,25.6-25.3,25.6
			C10.1,282.9,0,271.1,0,257.4z M44.7,257.4v-0.1c0-11.2-8.2-20.4-19.5-20.4S5.8,246,5.8,257.2v0.1c0,11.3,8.2,20.4,19.5,20.4
			S44.7,268.7,44.7,257.4z"/>
		<path class="st0" d="M62.4,232.5h5.2l31.2,39.7v-39.7h5.4V282h-4.5l-32-40.6V282h-5.4L62.4,232.5L62.4,232.5z"/>
		<path class="st0" d="M131.4,237.7h-16.6v-5.2h38.9v5.2H137v44.4h-5.7L131.4,237.7L131.4,237.7z"/>
		<path class="st0" d="M176.1,232.2h5.2l22.6,49.9h-6l-5.8-13.1h-27l-5.9,13.1h-5.7L176.1,232.2z M189.9,263.9l-11.2-25.3
			l-11.3,25.3H189.9z"/>
		<path class="st0" d="M213.7,232.5H235c6.1,0,11,1.8,14.1,5c2.4,2.4,3.8,5.9,3.8,9.8v0.1c0,8.2-5.7,13-13.4,14.4l15.2,20.2h-6.9
			l-14.4-19.2h-14.2V282h-5.6L213.7,232.5L213.7,232.5z M234.5,257.8c7.4,0,12.7-3.8,12.7-10.2v-0.1c0-6.1-4.7-9.8-12.7-9.8h-15.3
			v20.1H234.5z"/>
		<path class="st0" d="M265.4,232.5h5.6V282h-5.6V232.5z"/>
		<path class="st0" d="M283.3,257.4v-0.1c0-13.7,10.3-25.6,25.3-25.6c15.1,0,25.2,11.8,25.2,25.5v0.1c0,13.7-10.3,25.6-25.3,25.6
			C293.4,282.9,283.3,271.1,283.3,257.4z M328,257.4v-0.1c0-11.2-8.2-20.4-19.5-20.4s-19.4,9.1-19.4,20.3v0.1
			c0,11.3,8.2,20.4,19.5,20.4S328,268.7,328,257.4z"/>
	</g>
	<g>
		<path class="st0" d="M108.1,295h-6.7v-2.1h15.7v2.1h-6.7v17.9h-2.3V295z"/>
		<path class="st0" d="M119.1,303L119.1,303c0-5.6,4.1-10.4,10.2-10.4s10.2,4.8,10.2,10.3v0.1c0,5.5-4.1,10.4-10.2,10.4
			C123.1,313.3,119.1,308.5,119.1,303z M137.1,303L137.1,303c0-4.6-3.3-8.3-7.9-8.3s-7.8,3.7-7.8,8.2v0.1c0,4.5,3.3,8.3,7.9,8.3
			S137.1,307.5,137.1,303z"/>
		<path class="st0" d="M143.9,304.5v-11.6h2.3v11.5c0,4.3,2.3,6.7,6.1,6.7c3.7,0,6-2.2,6-6.6v-11.6h2.3v11.5c0,5.8-3.3,8.9-8.3,8.9
			C147.3,313.2,143.9,310.2,143.9,304.5z"/>
		<path class="st0" d="M166,292.9h8.6c2.5,0,4.4,0.7,5.7,2c1,1,1.5,2.4,1.5,3.9v0.1c0,3.3-2.3,5.3-5.4,5.8l6.1,8.2h-2.8l-5.8-7.8
			h-5.7v7.8H166V292.9z M174.4,303.1c3,0,5.1-1.5,5.1-4.1v-0.1c0-2.5-1.9-3.9-5.1-3.9h-6.2v8.1H174.4z"/>
		<path class="st0" d="M186.9,292.9h2.3v20h-2.3V292.9z"/>
		<path class="st0" d="M193.7,310l1.4-1.7c2.1,1.9,4.1,2.8,6.9,2.8c2.7,0,4.5-1.4,4.5-3.4v-0.1c0-1.9-1-2.9-5.2-3.8
			c-4.6-1-6.7-2.5-6.7-5.8v-0.1c0-3.1,2.8-5.5,6.6-5.5c2.9,0,5,0.8,7,2.5l-1.3,1.7c-1.9-1.5-3.7-2.2-5.8-2.2c-2.6,0-4.3,1.4-4.3,3.2
			v0.1c0,1.9,1,2.9,5.4,3.9c4.5,1,6.5,2.6,6.5,5.7v0.1c0,3.4-2.9,5.7-6.8,5.7C198.7,313.2,196.1,312.1,193.7,310z"/>
		<path class="st0" d="M213.3,292.9h2.3l7.3,10.9l7.3-10.9h2.3v20h-2.3v-16.2l-7.3,10.7h-0.1l-7.3-10.7v16.2h-2.2V292.9z"/>
	</g>
	<g>
		<path class="st1" d="M107.8,210.9c3.2,0.5,5.7,0.9,8.3,1.3c-0.5-4.4-4.2-2.6-6.2-3.6C109.7,208.4,108.9,209.6,107.8,210.9z"/>
		<path class="st1" d="M107.1,191.2c-1.5,0.1-3,0.4-4.5,0.7c0.3,3.1,2.8,4.5,7.5,3.8c-0.4-1.2-0.7-2.4-1.3-3.5
			C108.5,191.7,107.7,191.2,107.1,191.2z"/>
		<path class="st1" d="M151.8,178.9c-2.6-0.2-4.8-0.3-6.9-0.4C145.6,181.4,147.9,181.7,151.8,178.9z"/>
		<path class="st1" d="M109.6,191.6c1,0.2,1.8,0.6,2.5,0.5c1.8-0.2,3.7-1.1,5.4-0.7c3.6,0.9,7.9-1.1,9-4.2c-2.6,0.9-5.6,1.9-8.6,2.9
			c-0.1-0.3-0.2-0.6-0.4-0.9c0.5-0.6,0.9-1.1,1.9-2.3C115.8,188.6,113,189.9,109.6,191.6z"/>
		<path class="st1" d="M163.8,177.8c1.1,4.1,5,3.7,8.3,5.1C170.8,178,166.4,179.5,163.8,177.8z"/>
		<path class="st1" d="M143.3,176.6c-3-2.5-5.3,0.7-8.3,0.9c1.8,1.8,3.3,3.4,4.8,4.9c0.2-0.1,0.4-0.2,0.6-0.3
			c-0.1-1.1-0.3-2.3-0.5-3.8c1.3,0.1,2.6,0.2,4.2,0.4C143.8,177.9,143.8,177,143.3,176.6z"/>
		<path class="st1" d="M60.8,202.2c2.1,0.8,4.2,1.9,6.5,2.2c1.3,0.2,2.9-0.7,4.2-1.3c1.8-0.8,3.5-1.7,5.1-2.8
			c0.4-0.3,0.3-1.4,0.4-2.1c-0.8-0.1-1.9-0.6-2.4-0.3c-1,0.7-1.6,2-2.6,2.7c-0.7,0.6-1.8,1.1-2.6,1c-2.7-0.2-5.4-0.6-8.1-0.9
			C61.1,201.3,60.9,201.7,60.8,202.2z"/>
		<path class="st1" d="M62.9,177.8c-0.5,1.4-0.8,2-1,2.6c-0.3,0.2-0.6,0.4-1,0.7c-0.4-0.9-0.7-1.7-1-2.3c-1,0.7-1.8,1.2-2.8,1.8
			c1.4,0.6,3.5,0.8,3.7,1.6c0.9,3.3,2.6,1.9,4.4,1.2c0.9-0.4,1.8-0.6,2.9-0.9c0-0.2,0-0.8,0-1.5c1.8,0.5,3.6,1.3,3.7-1.7
			c3.3,2.8,5.9,1,9-0.5c-3.1-2.7-3.9-7-8.3-8c-0.8-0.2-1.6-0.8-2.2-1.5c-2.7-3.4-4.6-3.5-7.9-0.1c1,0.5,2,0.9,2.8,1.3
			c-0.9,1.2-1.7,2.3-2.8,3.8c1.5-0.4,2.5-0.6,2.8-0.7c2.4,1.7,4.4,3.2,6.9,5c-2.6,0.8-4.7,1.4-7.3,2.3
			C64.4,180.2,63.8,179.2,62.9,177.8z"/>
		<path class="st1" d="M49.7,182.8c1.5-1.6,3.3-2.9,5.5-4.8c-4,1.5-7.1,2.6-10.2,3.7c-0.1-0.2-0.2-0.5-0.3-0.7
			c0.3-0.6,0.5-1.1,0.8-1.7c-0.2-0.1-0.3-0.3-0.5-0.4c-0.5,0.4-0.9,0.9-1.4,1.4c0.3,0.8,0.6,1.6,0.9,2.4
			C46,183.5,47.7,184.8,49.7,182.8z"/>
		<path class="st1" d="M61.9,190.3c-0.2,0.3-0.4,0.6-0.6,1c2.2,1.3,4.4,2.5,6.6,3.8c0.2-0.4,0.5-0.7,0.7-1.1
			C67.5,190.6,64.3,191.1,61.9,190.3z"/>
		<path class="st1" d="M45.9,170.4c-1.9,0-4.2-2.4-5.7,0c0.2,0.9,0.5,1.7,0.8,2.5c1.2,0.7,2.5,1.6,4.1,2.6c-0.2-1-0.4-1.4-0.4-1.5
			l0,0l0,0l0,0l0,0c2.7,0.3,5.3,0.7,7.9,0.8c0.5,0,1-1.2,1.3-1.5c-2-0.5-3.3-0.7-4.5-1.1c-0.2-0.1,0-1.1,0-1.5
			C48.2,170.6,47,170.4,45.9,170.4z"/>
		<path class="st1" d="M85.9,162.8c-0.1-0.4-0.1-0.7-0.2-1.1c-2,0-4.1,0-6.8,0c0.3,0.5,0.7,2.1,1.2,2.1
			C82,163.7,84,163.1,85.9,162.8z"/>
		<path class="st1" d="M77,214.3c-3.6,0.3-7.2,0.6-10.8,0.9c1.2,3,4.6,4.2,8.5,2.7c-0.2-0.7-0.5-1.4-0.7-2.1c1.1-0.3,2.1-0.5,3-0.7
			C77.1,214.9,77.1,214.6,77,214.3z"/>
		<path class="st1" d="M130.8,189c-0.6-1.5-1-2.5-1.8-4.3c0.3,3.2,0.8,5.1,3.7,5.3c0.4,0,1,0.3,1,0.4c0.2,3.4,2.4,2.3,3.8,1.4
			c2-1.3,3.3-0.8,4.8,0.6c0.4,0.4,1.1,0.5,1.7,0.7c-2-5.5-2.6-5.8-6.4-3.6c-0.5-0.8-1.1-1.8-1.9-3c-0.7,1.2-1.1,1.8-1.8,2.8
			C133.1,187.4,132.1,186.9,130.8,189z"/>
		<path class="st1" d="M282.8,175.3c-2-0.6-3.8-1.2-5.5-1.7c-0.2,0.3-0.5,0.6-0.7,0.9c1.5,1.1,3.1,2.3,4.6,3.4
			c2.7,1.9,4.8,0.8,6.6-1.5c0.4,0.8,0.7,1.4,0.7,1.4c1.3,0.2,2.4,0.3,3.5,0.5c0.6-1.8,1.2-3.5,1.8-5.3c-1.7-1.6-4.6-1.8-5.7-0.1
			c-0.8-0.4-1.5-0.7-2.5-1.3c0.5,1.1,0.8,1.8,1.3,3.2c-1.5-1-2.4-1.6-3.5-2.3C283.1,173.5,282.9,174.4,282.8,175.3z"/>
		<path class="st1" d="M264.9,175.7c-0.1-0.4-0.1-0.7-0.2-1.1c-2.1,0-4.3,0-6.7,0c0.3,0.5,0.8,1.9,1.2,1.9
			C261.1,176.4,263,176,264.9,175.7z"/>
		<path class="st1" d="M243.3,211.9c3.1,0.1,5.8,0.4,8.5,0.2c3.8-0.3,4.4-3.6,5.1-7.1c-1.4,1-2.8,1.9-4.2,2.9
			c-1.4-0.9-2.7-1.8-4.1-2.8c-0.2,0.2-0.3,0.3-0.5,0.5c0.5,0.9,1,1.9,1.8,3.3c-2,0.3-3.8,0.5-5.8,0.7
			C244.1,209.8,243.8,210.4,243.3,211.9z"/>
		<path class="st1" d="M275.7,185.9c4.1,4.3,7.3,5.6,11.1,4.5c0.6-1.2,1.1-2.4,1.6-3.5C284.1,186.5,280.2,186.2,275.7,185.9z"/>
		<path class="st1" d="M38.1,159.6c-0.2,0.1-0.4,0.1-0.5,0.2c0.4,2.1,0.9,4.2,1.4,6.2c2.2-0.1,4.2,2,6.5,2.6
			c0.1-0.2,0.3-0.4,0.4-0.7c-0.8-1.1-1.7-2.2-2-2.6c-0.4-1.9-0.7-3.1-0.9-4.3c2.3-0.9,3.8,4.4,6.6,0.9c-0.5-0.8-1-1.6-1.7-2.7
			c1.1,0.2,1.7,0.3,2.4,0.5c0.2-0.2,0.4-0.4,0.6-0.6c-0.7-0.6-1.4-1.2-1.5-1.3c-0.7-2.4-1.2-4.3-1.7-6c1.1,0,2.3,0,3.8,0
			c0.3,1,0.7,2.5,1.2,4c1.9-3.5-1-5.8-2.2-9.3c1.3,1.1,2,1.7,3.1,2.6c0.2-2.1,0.4-4.1,0.5-6c0.2,0,0.4,0,0.6,0
			c0.2,1.4,0.4,2.9,0.7,4.7c1-0.9,1.7-1.5,3.1-2.7c-1.6,3.5-2.8,6.2-4,9c0.3,0.2,0.5,0.5,0.8,0.7c1.5-2.1,3.3-3.7,6.3-4.2
			c-1.4,1.6-1.5,3,0.4,4.1c-1.2,0-2.5,0-4.1,0c1.2,1.1,2,1.8,2.9,2.6c-1.4,0-2.5,2.8-4,0.4c-0.4,0.5-1.2,1-1.2,1.5
			c0,2.2,0.2,4.5,0.3,6.7c0.4,0.2,0.8,0.3,1.2,0.5c1.7-2.4,3.3-4.8,4.8-6.8c1.5-0.7,2.8-1.2,4.2-1.9c-0.3,0.9-0.6,1.8-1,2.8
			c0.7,0.3,1.3,0.5,2.1,0.8c-0.7,0.9-1.4,1.8-2.4,3.2c2.2,0.5,4.1,1,6.2,1.5c0.2-0.8,0.3-1.4,0.6-2.2c0.9,0.7,1.7,1.3,3.2,2.4
			c-0.1-1.9-0.2-3.2-0.3-4.9c1.1,0.1,2.3,0.2,4,0.3c-0.6-3.8-6.6-4.2-5.6-9.2c2,0,4.1,0.1,6.2-0.1c0.3,0,0.5-1,0.6-1.4
			c1.6,0.5,3.8,1.9,4.7,1.3c2.5-1.7,4.5-4.2,6.3-6.7c-2.9,2.3-6.1,3.5-10.1,4c0.9-1.4,1.5-2.2,2.5-3.7c-1.7,0.9-2.9,1.5-4.7,2.5
			c0-1.6,0-2.9,0-4.3c-0.7,0.5-1.8,1.4-3.7,2.7c0.5-1.7,0.8-2.5,1-3.3c-1.5-0.5-3-1.1-4.9-1.7c2-1.3,3.5-2.2,5.4-3.3
			c1.1,0.8,2.9,2.1,5.3,3.9c-0.4-1.4-0.6-2-0.9-3.2c3.2,2.1,6.1,4.1,9.5,2.1c0.4-0.3,0.3-1.5,0.4-2.9c-1.2,0.8-1.9,1.2-2.3,1.5
			c-1-0.6-1.9-1.1-3-1.7c0.2-0.4,0.5-1.1,0.7-1.7c-2-0.2-3.9-0.5-6.7-0.8c1.3-1.2,2.1-1.9,3.1-2.8c-0.8-1.2-1.7-2.6-2.8-4.1
			c0.2-0.2,0.7-0.7,1.1-1.2c-0.5-1-1-2-1.5-3.1c2.8-0.7,3.7,5.1,6.9,1.3c-0.5-1.1-1-2.1-1.8-3.6c1.1,0.2,1.9,0.4,2.6,0.5
			c0.2-0.2,0.4-0.5,0.6-0.7c-0.7-0.7-1.4-1.5-1.8-1.8c-0.6-2.7-1.2-5.2-1.8-7.9c0.8,0.4,1.6,0.8,2.5,1.2c0.3-0.5,0.6-1,1.1-1.9
			c0.6,2.3,1.1,4.3,1.6,6.3c2-4.3-1.2-7.4-2.3-11.8c1.3,1.4,2,2.1,3.1,3.4c0.2-2.8,0.3-5.1,0.5-7.4c0.2,0,0.5,0,0.7,0
			c0.2,1.8,0.5,3.7,0.8,5.9c0.9-1.1,1.5-1.8,2.1-2.6c0.2,0.1,0.3,0.1,0.5,0.2c-1.2,3.4-2.4,6.8-3.6,10.2c0.4,0.2,0.8,0.4,1.2,0.5
			c0.7-1.4,1.3-2.7,1.8-3.7c1.4-0.5,2.6-1,4.2-1.5c-0.5,1-0.9,1.8-1.3,2.7c0.6,0.7,1.3,1.5,2.2,2.6c-1.8,0-3.2,0-4.7,0
			c1.2,1.4,2.2,2.5,3.3,3.7c-0.1,0.3-0.2,0.6-0.3,0.9c-1.3-0.2-2.6-0.7-3.8-0.5c-0.6,0.1-1.5,1.3-1.5,2c0,2.6,0.3,5.3,0.6,7.9
			c0.3,0.1,0.7,0.3,1,0.4c1.2-2.1,2.3-4.2,3.6-6.3c0.7-1.1,0-3.6,2.9-2.6c0.4,0.1,1.3-1.4,2.5-1.9c-0.3,1.1-0.7,2.2-1.1,3.4
			c0.7,0.3,1.4,0.5,2.3,0.9c-0.7,1.2-1.5,2.5-2.3,3.8c0.8,0.5,1.5,1,3.2,2.2c-1.3,0.9-2.3,1.7-3.4,2.3c-0.6,0.4-1.3,0.7-2,1
			c0.7,0.5,1.3,1,2,1.5c0.3,0.2,0.7,0.4,1,0.5c-1,1.5-2,2.9-3.3,4.9c1.6-0.6,2.5-0.9,2.9-1c2.3,2.1,4.4,4,6.9,6.2
			c-2.5,1-4.5,1.9-6.9,2.9c-0.4-0.6-1.3-1.7-2.3-3.2c-0.4,1.3-0.7,2.2-1.1,3.3c-0.7-0.8-1.4-1.6-2.1-2.4c-0.4,0.6-0.8,1.1-1.4,2
			c-0.6-1.8-1-3-1.5-4.4c-0.1,4.4,0.3,5,4,5.9c0.4,1.1,0.8,2.7,1.1,2.7c1.7-0.2,3.3-0.7,5-1.1c0-0.3,0-0.5,0-0.8c1.3,1,2.5,2,4,3.2
			c2.3-2.2,4.5-0.4,6.8,0.7c-1.7,1.7-3.2,3.2-5,5c-0.3-0.2-1.2-0.7-2.6-1.6c0.7,1.3,1.1,2.2,1.5,3c-0.1,0.1-0.2,0.3-0.3,0.4
			c-0.9-0.6-1.8-1.3-3-2.1c-0.3,1.1-0.5,2-0.7,3c-1.8-0.6-3.6-1.2-5.5-1.8c0.2,2.4,1.9,4.4,5.4,5.2c1.6,0.4,3.6-0.8,5.6-1.3l0,0l0,0
			c0,0.1,0.3,0.6,0.3,0.8c2.2,0.1,4.1,0.3,6.1,0.4c-1.1,1.4-2.1,2.6-3.2,4.1c-0.5-0.2-1.2-0.5-1.6-0.7c-1.1,2-1.8,4.3-3.3,5.7
			c-0.7,0.7-2.9-0.2-4.4-0.4c-1.9-0.1-3.8-0.2-6-0.3c3.6,4.9,7.6,6.3,12.4,4.3c0,0.8,0,1.5,0,2.3c0.3,0.1,0.6,0.3,0.8,0.2
			c3.5-1.7,6,0.9,8.9,1.9c1.9,0.7,3.9,0.9,5.9,1c0.6,0,1.3-1,1.7-1.8c-2.9,0.5-4.9-0.4-4.8-2.2c-1.9-0.2-3.7-0.3-5.6-0.5
			c-0.1-0.2-0.2-0.4-0.3-0.6c0.7-0.5,1.5-0.9,2.6-1.6c-0.9-1-1.8-2-2.1-2.3c-0.4-1.9-0.6-2.9-0.9-4c2.3-0.6,3.7,3.7,6.5,1
			c-0.4-0.7-0.7-1.3-1.1-2c0.6-2.1,0.6-2.3,1-2.2c-0.7-2.2-1.3-4-1.9-5.7c1.1,0.1,2.3,0.1,3.9,0.2c0.3,0.8,0.7,2.2,1.2,3.5
			c0.4-0.1,0.8-0.3,1.2-0.4c-0.9-2.5-1.8-5-2.8-7.7c0.9,0.7,1.6,1.3,2.8,2.2c0.1-2.2,0.2-3.8,0.3-5.5c0.2,0,0.4-0.1,0.6-0.1
			c0.3,1.3,0.5,2.6,0.8,4.2c0.8-0.6,1.5-1.1,2.7-1.9c-1.3,2.9-2.5,5.4-3.6,7.9c0.4,0.2,0.8,0.4,1.1,0.6c0.6-1,1.3-2,1.8-2.9
			c1.3-0.3,2.4-0.5,3.2-0.7c0.2,1.1,0.5,2.2,0.8,3.4c-0.8,0-2,0-3.7,0c1.2,1,2,1.8,2.8,2.5c0,0.3,0,0.5-0.1,0.8
			c-1.2-0.1-2.5-0.5-3.5-0.1c-0.7,0.2-1.6,1.4-1.7,2.2c-0.1,1.7,0.4,3.4,0.8,5.8c1.3-1.1,2.9-1.8,3.2-2.9c1.1-3.1,3.5-4.3,6.5-5.3
			c-0.3,0.9-0.5,1.6-0.9,2.9c2.9-0.4,5.5-0.7,8.1-1c-0.1-0.2-0.1-0.3-0.2-0.5c1.6,0.3,3.6,1.4,4.7,0.8c2.5-1.4,5.3-3.1,6.2-5.9
			c-3.1,1.3-6.2,2.7-9.3,4.1c-0.2-0.3-0.3-0.6-0.5-0.8c0.5-0.8,1.1-1.6,1.9-2.8c-1.7,0.8-2.9,1.4-4.2,2c-0.4-0.9-0.7-1.7-1.1-2.7
			c-0.6,0.3-1.3,0.6-2.6,1.2c0.4-1.3,0.6-2.1,0.8-2.8c-1.5-0.4-2.9-0.8-5-1.3c2.1-1.2,3.5-2.1,5.2-3.1c1.3,0.8,3,2,5.4,3.5
			c-0.4-1.3-0.6-1.8-0.8-2.4c2,0.8,4,1.9,5.9,2.1c1.4,0.1,4.7,0.8,3.4-3.2c-0.8,0.5-1.5,1-2,1.3c-0.9-0.6-1.7-1.1-2.6-1.8
			c0.1-0.2,0.3-0.8,0.5-1.3c-2-0.2-4-0.5-6-0.7c-0.1-0.3-0.1-0.5-0.2-0.8c0.8-0.5,1.6-0.9,2.8-1.7c-0.9-1.2-1.8-2.4-3-3.8
			c0.1-0.1,0.5-0.6,1.1-1.2c-0.5-0.9-1.1-1.8-1.6-2.8c0.2-0.2,0.4-0.4,0.6-0.6c1,0.7,2,1.6,3.1,2.1c0.8,0.4,1.7,0.3,2.6,0.5
			c-0.1-0.9-0.2-1.7-0.3-2.6c0-0.3-0.2-0.6-0.2-0.6c0.8-0.5,1.6-0.9,2.4-1.3c-0.7-0.5-1.3-0.9-1.5-1.1c-0.5-2.5-1-4.8-1.4-6.9
			c1,0.1,2.2,0.1,3.7,0.2c0.3,1.1,0.8,2.7,1.2,4.4c1.9-3.9-1.2-6.5-1.5-10.1c0.6,0.9,1.2,1.7,1.9,2.6c0.2-0.1,0.4-0.1,0.6-0.2
			c0-2.3,0-4.5,0-6.8c0.3,0,0.6-0.1,0.9-0.1c0.3,1.8,0.6,3.6,0.8,5.4c0.3,0.2,0.5,0.3,0.8,0.5c0.4-0.9,0.7-1.9,1.1-2.8
			c0.3,0.2,0.6,0.4,0.8,0.7c-1.2,3-2.4,6-3.6,9.1c0.4,0.2,0.8,0.4,1.2,0.6c0.7-1.2,1.4-2.4,2-3.4c1.2-0.4,2.4-0.7,3.8-1.1
			c-1,1.6-1.6,3.3,0.6,4.5c-1.3,0-2.6,0-4.2,0c1.2,1.2,2.1,2.3,3.2,3.4c-1.3,0.5-2.3,1-3.3,1.4c-0.3-0.5-0.5-1-0.7-1.4
			c-2,0.4-2.3,4.2-0.6,10.1c1.5-2.1,2.8-3.7,3.9-5.4c0.8-1.4,0.4-3.8,3.3-3.1c0.5,0.1,1.4-1.2,2.5-1.6c-0.4,1-0.7,2-1.2,3.2
			c0.7,0.3,1.4,0.5,2.2,0.8c-0.7,1.1-1.4,2.2-2.2,3.5c0.8,0.5,1.6,0.9,2.7,1.5c-1.1,0.9-2.1,1.8-3.1,2.5c-0.5,0.4-1.3,0.5-1.9,0.7
			c0.7,0.5,1.3,1,2,1.5c0.2,0.2,0.5,0.3,0.8,0.4c-0.9,1.3-1.7,2.6-2.9,4.4c1.4-0.5,2.4-0.8,2.8-1c2.3,2,4.3,3.7,6.8,5.7
			c-2.5,0.9-4.5,1.6-6.9,2.5c-0.4-0.5-1.2-1.5-2.3-2.8c-0.4,1.1-0.6,1.8-1,3c-0.8-0.9-1.4-1.6-2-2.3c-0.7,0.6-1.5,1.2-2.5,2.1
			c1.3,0.4,2.4,0.8,3.6,1.2c0.4,2.7,1.8,3.7,3.8,2.1c2.8-2.3,4.2-0.7,5.6,1.4c1.8-1.2,3.5-2.4,5.5-3.7c1.5,0.9,3.3,2,5.7,3.4
			c-0.4-1.2-0.6-1.7-0.8-2.2c2,0.7,3.9,1.6,5.8,1.8c1.6,0.2,4.1,0.7,3.9-2c-2.1-0.4-3.6-0.7-5.3-1.1c0.3-0.6,0.5-1.1,0.7-1.5
			c-1.9-0.2-3.9-0.3-6.8-0.6c1.5-1.1,2.3-1.7,3.3-2.4c-0.8-1.1-1.7-2.1-2.3-2.9c-0.2-1.4-0.3-2.7-0.5-4.1c2.1-0.5,3.7,4,6.4,1.2
			c-0.5-0.9-1-1.8-1.3-2.5c0.9-0.4,1.7-0.7,2.5-1c-0.6-0.5-1.2-1-1.4-1.2c-0.6-2.3-1.2-4.3-1.8-6.3c1.1,0.1,2.3,0.1,3.8,0.2
			c0.3,1.1,0.8,2.6,1.3,4.1c0.3-0.1,0.6-0.1,0.9-0.2c-0.2-1.4-0.2-2.9-0.6-4.2c-0.5-1.4-1.4-2.7-1.7-4.4c0.6,0.5,1.3,1,2.4,1.8
			c0.2-2.3,0.3-4.2,0.5-6.2c0.2,0,0.4,0,0.6-0.1c0.3,1.5,0.5,3,0.8,4.8c0.9-0.7,1.6-1.3,2.9-2.4c-1.5,3.4-2.7,6.2-3.8,9
			c0.4,0.2,0.8,0.4,1.1,0.6c0.7-1.2,1.4-2.4,1.9-3.3c1.3-0.3,2.4-0.5,3.1-0.7c0.3,1.2,0.5,2.4,0.9,3.8c-0.8,0-2,0.1-3.9,0.2
			c1.5,1,2.5,1.8,3.6,2.5c-0.2,0.4-0.4,0.8-0.6,1.2c-1.3-0.2-2.6-0.6-3.9-0.5c-0.6,0.1-1.4,1.2-1.4,1.9c0,2.1,0.4,4.3,0.7,7.5
			c1.7-2,3-3.3,4-4.8c0.9-1.4,0.6-3.9,3.5-3.3c0.3,0.1,1-1.2,1.4-1.9c0.2,0.1,0.5,0.3,0.7,0.4c-0.3,1-0.5,1.9-0.8,3
			c0.7,0.2,1.3,0.4,2.2,0.6c-0.8,1.1-1.5,2.1-2.3,3.2c0.8,0.5,1.4,0.9,2.7,1.6c-1.7,1-3.1,1.8-5.3,3.1c1.7,0.8,3.2,1.6,4.8,2.1
			c0.4,0.1,1.2-0.8,2-1.4c0.5,0.3,1.2,0.8,2.5,1.8c-0.2-1.9-0.3-3.1-0.5-4.8c1.3,0.1,2.5,0.1,4.7,0.3c-2.6-2.8-4.8-5.2-7.5-8.1
			c3.4-0.8,6-1.4,9-2.1c1,0.2,2.7,1.3,4,0.9c2.6-0.9,5.6-5.1,5.9-6.5c-2.7,1.3-5.8,2.8-9,4.3c-0.2-0.3-0.4-0.6-0.6-0.8
			c0.5-0.9,1.1-1.8,1.9-3.2c-1.6,0.8-2.9,1.5-4.7,2.4c0.2-1.8,0.3-3.2,0.5-4.6c-0.9,0.7-1.9,1.5-2.8,2.4c-0.2-0.1-0.4-0.2-0.6-0.3
			c0.2-0.9,0.5-1.7,0.7-2.4c-1.5-0.5-3.1-0.9-5.2-1.6c2.2-1.3,3.7-2.1,5.6-3.3c1.1,0.8,3,2.1,4.8,3.4c0.1-0.1,0.3-0.3,0.4-0.4
			c-0.3-0.6-0.6-1.2-0.9-1.9c2.1,0.8,4.1,1.9,6.2,2.1c3.7,0.4,4.1-0.3,3.1-3.2c-0.6,0.4-1.3,0.9-1.8,1.2c-1-0.6-1.8-1.2-2.8-1.8
			c0.1-0.4,0.4-1,0.6-1.4c-2.1-0.3-4.2-0.7-6.2-1c0-0.3,0-0.5,0-0.8c0.8-0.5,1.6-1,2.8-1.7c-0.9-1.4-1.8-2.7-2.9-4.3
			c0.1-0.1,0.5-0.6,1.1-1.2c-0.5-1-1.1-2.1-1.7-3.2c0.2-0.2,0.4-0.4,0.6-0.6c1.6,1.1,3.1,2.3,4.7,3.4c3.8-1.2-0.1-3.3,0.6-5.1
			c0.7,0.2,1.3,0.4,1.9,0.6c0.2-0.2,0.4-0.3,0.6-0.5c-0.6-0.8-1.3-1.6-1.7-2.3c-0.5-2.5-1-5-1.6-7.6c1.1-0.3,2.6,3.1,3.4-1.2
			c0.7,2.9,1.2,4.8,1.6,6.7c0.3-0.1,0.7-0.1,1-0.2c-0.3-1.8-0.3-3.7-0.9-5.4c-0.6-1.8-1.6-3.5-1.9-5.5c0.8,0.8,1.5,1.6,2.7,2.9
			c0-3,0-5.4,0-7.9c0.3,0,0.6-0.1,0.9-0.1c0.3,2,0.5,3.9,0.9,6.4c1-1.1,1.6-1.9,2.3-2.7c0.2,0.1,0.3,0.1,0.5,0.2
			c-1.2,3.5-2.5,7-3.7,10.5c0.3,0.2,0.7,0.4,1,0.7c1.3-2.5,2.6-5.1,6-5.1c-0.3,0.7-0.7,1.5-1.4,2.9c0.7,0.3,1.6,0.7,2.6,1.1
			c-0.2,0.3-0.4,0.6-0.6,0.9c-1.3,0-2.7,0-4.3,0c1.3,1.4,2.3,2.5,3.4,3.7c-1.3,0.6-2.3,1.1-3.4,1.6c-0.3-0.5-0.5-1-0.7-1.5
			c-2,0.4-2.3,5.9-0.3,11.4c2-3.6,3.6-6.6,5-9.1c1.6-0.9,2.9-1.6,4.4-2.4c-0.4,1.2-0.8,2.3-1.2,3.5c0.7,0.3,1.4,0.6,2.3,1
			c-0.8,1.3-1.6,2.5-2.4,3.8c0.9,0.6,1.7,1.1,2.9,2c-2,1.3-3.7,2.4-5.9,3.8c1.6,0.7,2.5,1.2,3.6,1.7c-1,1.4-1.9,2.9-3.3,4.8
			c1.6-0.6,2.7-1,3-1.1c2.4,2.2,4.4,4,6.9,6.3c-2.5,1-4.5,1.8-7,2.8c-0.4-0.6-1.2-1.6-2.3-3.1c-0.4,1.2-0.6,2-1,3.3
			c-0.8-0.9-1.4-1.7-2-2.4c-0.7,0.5-1.5,1.1-2.7,2c1.3,0.6,2.5,1.2,3.6,1.7c0.4,0.8,0.9,2.6,1.2,2.5c1.7-0.2,3.4-0.8,5.7-1.5
			c0.5,0.5,1.6,1.5,2.8,2.6c0-0.2-0.1-0.4-0.1-0.6c2.4,0.3,4.7,0.5,7.6,0.9c-2.1,2.2-3.6,3.7-5.3,5.5c-0.3-0.2-1.1-0.6-2.5-1.3
			c0.6,1.3,1,2.1,1.8,3.7c-1.6-1.1-2.5-1.7-3.7-2.5c-0.3,1.1-0.5,2-0.8,3c-1.8-0.7-3.5-1.3-5.9-2.2c0.5,3.3,3,4,5,5.3
			c2.6,1.7,4.2,0,5.9-2c0.4,0.8,0.7,1.4,0.8,1.7c2,0.2,3.7,0.3,5.8,0.5c-1.2,1.5-2.1,2.7-3.2,4c-0.5-0.3-1.2-0.6-1.4-0.7
			c-1.2,2.3-2.3,4.4-3.2,6.2c-3.7-0.5-7-1-10.8-1.5c4.1,5.4,8.3,6.7,12.8,4.4c0,0.9,0,1.8,0,3.1c1.5-0.5,2.7-0.9,4.4-1.4
			c-1.1-1-1.7-1.6-2.4-2.2c1.5-0.2,2.8-0.4,4.1-0.6c0-0.3,0-0.6,0-0.9c0.8,0.5,1.7,1,3,1.8c-0.1-1.6-0.3-2.8-0.4-4.2
			c1.2,0,2.5,0,4.5,0c-2.5-2.6-4.8-4.8-7.4-7.5c3.4-0.6,6.1-1.1,8.7-1.6c-0.1-0.1-0.2-0.3-0.2-0.4c1.5,0.4,3.4,1.7,4.4,1.1
			c2.6-1.5,5.4-3.3,6.4-6.1c-3.1,1.3-6.2,2.7-9.4,4c-0.2-0.3-0.3-0.6-0.5-0.9c0.6-0.8,1.2-1.5,2.3-3c-2,1-3.2,1.6-4.5,2.2
			c-0.4-0.9-0.7-1.7-1.1-2.7c-0.7,0.2-1.4,0.4-2.5,0.8c0.4-1.1,0.6-1.8,0.8-2.4c-1.5-0.5-3-0.9-5.1-1.5c2.2-1.2,3.6-2,5.5-3
			c1,0.7,2.8,1.9,5.1,3.4c-0.2-1.2-0.3-1.7-0.2-1.5c3,0.2,6,0.5,9,0.6c0.1,0,0.2-1.5,0.3-2.7c-1.1,0.7-1.8,1.1-2.7,1.6
			c-0.9-1.1-1.7-2.1-2.6-3.3c-1.4-0.2-3.4-0.5-5.4-0.8c0-0.3,0-0.5-0.1-0.8c0.8-0.5,1.7-0.9,2.8-1.6c-0.9-1.3-1.8-2.5-2.9-4
			c0.1-0.2,0.6-0.6,1.1-1.1c-0.6-0.9-1.1-1.8-1.7-2.8c2.8-1.1,4,4.8,7.1,1.2c-0.5-0.9-1-1.8-1.7-3.1c1.1,0.1,1.8,0.2,2.5,0.3
			c0.2-0.2,0.4-0.4,0.6-0.6c-0.7-0.7-1.4-1.4-1.7-1.8c-0.5-2.5-1-4.8-1.5-7.1c1.1-0.5,2.6,2.9,3.3-1.3c0.7,2.7,1.2,4.5,1.7,6.3
			c1.9-3.9-1.3-6.7-1.5-10.4c0.6,0.9,1.3,1.8,1.9,2.7c0.2-0.1,0.4-0.2,0.6-0.3c0.1-2.2,0.2-4.3,0.3-6.5c0.2,0,0.5,0,0.7-0.1
			c0.2,1.7,0.5,3.4,0.8,6.1c0.8-1.6,1.3-2.5,1.8-3.4c0.4,0.3,0.7,0.6,1.1,0.8c-0.7,1.5-1.5,2.9-2.1,4.5c-0.6,1.6-1,3.3-1.1,5.2
			c1.5-2.5,3.7-3.8,6.6-4.7c-0.5,0.9-0.9,1.6-1.6,2.9c0.7,0.3,1.5,0.7,2.4,1.1c-0.1,0.2-0.3,0.5-0.4,0.7c-1.3,0-2.6,0-4.3,0
			c1.3,1.4,2.2,2.5,3.2,3.6c-1.5-0.2-2.9,2.7-4.1,0.1c-0.5,0.4-1.3,0.9-1.4,1.3c-0.1,2.7-0.1,5.4-0.1,8.1c0.5,0.2,1,0.5,1.6,0.7
			c0.7-1,1.5-2,2-3.1c1.5-3,2.3-6.7,6.8-6.7c-0.2,0.5-0.5,1.6-0.9,2.8c0.7,0.3,1.4,0.5,2.2,0.8c-0.8,1.2-1.5,2.2-2.4,3.5
			c0.9,0.5,1.6,1,2.8,1.8c-1.9,1.2-3.6,2.3-5.6,3.6c1.6,0.7,2.6,1.1,3.5,1.5c-0.9,1.3-1.8,2.5-3,4.2c1.5-0.4,2.5-0.6,2.7-0.6
			c2.5,2,4.4,3.7,6.9,5.7c-2.6,0.9-4.6,1.6-7.1,2.5c-0.4-0.5-1.1-1.4-2.1-2.8c-0.4,1-0.8,1.8-1.3,2.9c-0.7-0.9-1.4-1.6-2-2.3
			c-0.3,0.5-0.7,1-1.2,1.8c-0.5-0.6-1-1.2-1.4-1.7c-0.2,0.2-0.4,0.5-0.5,0.7c1.4,1,2.7,2.1,4.6,3.5c0.1,0.1,0.7,1.7,1.1,1.7
			c1.6-0.2,3.2-0.8,5.2-1.4c2.6,1.6,5.4,1.7,6.6-0.4c0.8,0.6,1.6,1.1,3.1,2.2c-0.2-2-0.4-3.3-0.6-5c1.2,0.1,2.4,0.2,4.7,0.4
			c-2.6-2.9-4.8-5.4-7.4-8.4c3.3-0.7,5.9-1.3,8.4-1.9c-0.1-0.2-0.2-0.4-0.3-0.5c0.5,0.1,1,0.3,1.5,0.5c0.1-0.5,0.1-1.1,0.2-1.6
			c-0.2-0.3-0.4-0.6-0.6-0.8c0.3-0.4,0.5-0.8,0.8-1.2c0.1-0.5,0.1-1,0.2-1.5c-1.2,0.7-2.2,1.3-3.7,2.1c0.2-1.9,0.3-3.3,0.5-4.7
			c-0.8,0.7-1.9,1.5-3.7,2.9c0.5-1.8,0.7-2.7,0.9-3.4c-1.5-0.5-3-1.1-4.9-1.8c2.1-1.2,3.4-2.1,5.3-3.2c1.1,0.8,3,2.1,5.6,4
			c-0.6-1.5-0.8-2.1-1.3-3.3c0.6,0.4,1.2,0.7,1.8,1.1c0.1-1.5,0.1-3,0.2-4.5h-0.1c-0.8-0.2-1.6-0.4-2.4-0.6c0.7-0.7,1.4-1.5,2.3-2.5
			c-0.7-1.1-1.6-2.4-2.7-4c0.2-0.2,0.6-0.7,1.1-1.3c-0.5-0.9-1-1.9-1.6-3.1c1.4-0.5,2.3,0.7,3.3,1.6C296,56,238.2,0.5,167.3,0.5
			C94.2,0.5,34.8,59.8,34.8,133c0,8.9,0.9,17.6,2.6,26C37.6,159.3,37.8,159.4,38.1,159.6z"/>
		<path class="st1" d="M296.6,162.1L296.6,162.1C296.7,162.1,296.7,162.1,296.6,162.1C296.7,162.1,296.6,162.1,296.6,162.1z"/>
		<path class="st1" d="M198.8,197.7c4.7,4.9,8.7,5.6,12.8,3.1c0.7-1.9,1.2-3.2,2-5.6C209.1,200.2,204,197.6,198.8,197.7z"/>
		<path class="st1" d="M174.9,176.2c0.9,0.6,1.5,1,2,1.4c-0.3,0.7-0.7,1.5-1.2,2.7c2.6-0.5,4.4-1,7-1.5c1.2,1,3.2,2,5.3-0.2
			c1.5-1.6,4.3-2.2,4.3-4.3c-3,1.1-6,2.1-9,3.2c-0.1-0.3-0.2-0.6-0.3-0.9c0.4-0.6,0.8-1.1,1.4-2.1c-1.5,0.6-2.6,1-4.4,1.7
			c0.2-1.6,0.3-2.6,0.4-3.6C178.6,173.8,177,174.9,174.9,176.2z"/>
		<path class="st1" d="M209.2,190.2c-1-2-5.4-3.5-9.5-3.3C201.7,190.2,206.3,191.9,209.2,190.2z"/>
		<path class="st1" d="M201,174.2c-0.5,0.9-0.9,1.6-1.2,2.2c-1.3,0-1.7-3.4-3.5,0.1c-0.7-1.7-1-2.7-1.6-4.1c0.4,4.3,0.4,4.3,4.5,5.5
			c0.2,2.6,1.7,3.4,4,1.6c1.6-1.2,2.8-0.7,4.1,0.1c2.1,1.3,6.2,1.2,8.7-0.6c-3.7-1.1-2.6-6.8-7.6-6.6c0.4,0.7,0.8,1.3,1.4,2.2
			c-2.2,0.7-4.2,1.4-6.5,2.1C202.8,176.2,202,175.3,201,174.2z"/>
		<path class="st1" d="M253.1,184.4c-1.8,2-3.3,4.3-5.3,7c-2.8,0.3-6.4,0.8-10.1,1.2c0.6,2.6,3.8,4.7,7,4.1c2.4-0.4,3.7-1.8,2.7-4
			c1.5-0.5,2.8-0.9,4.5-1.4c2.5,1.8,5,0.3,7.7-1c-1.3-1.9-2.4-3.8-3.8-5.4C255.2,184.4,253.4,184.1,253.1,184.4z"/>
		<path class="st1" d="M215.4,164.6c1.9,0,3.8-0.6,5.6-0.9c-0.1-0.4-0.2-0.8-0.3-1.2c-2.1,0-4.2,0-6.7,0
			C214.4,163,214.9,164.6,215.4,164.6z"/>
		<path class="st1" d="M217.1,211.9c-1.1,0-1.8,0-2.5,0c-2.7-0.2-4.7,3.8-7.8,1.4c-0.3,0.5-0.5,0.9-0.8,1.4
			C210.5,216.7,213.7,215.9,217.1,211.9z"/>
	</g>
</g>
</svg>
