<?xml version="1.0" encoding="utf-8"?>
<!-- Generator: Adobe Illustrator 24.0.3, SVG Export Plug-In . SVG Version: 6.00 Build 0)  -->
<svg version="1.1" id="Layer_1" xmlns="http://www.w3.org/2000/svg" xmlns:xlink="http://www.w3.org/1999/xlink" x="0px" y="0px"
	 viewBox="0 0 333.9 81.6" style="enable-background:new 0 0 333.9 81.6;" xml:space="preserve">
<style type="text/css">
	.st0{fill:#FFFFFF;}
	.st1{fill:none;stroke:#FFFFFF;stroke-width:0.5;stroke-linejoin:round;stroke-miterlimit:10;}
</style>
<g>
	<path class="st0" d="M0.1,25.8v-0.1C0.1,12,10.3,0,25.4,0c15.1,0,25.2,11.8,25.2,25.5v0.1c0,13.7-10.3,25.6-25.3,25.6
		C10.2,51.2,0.1,39.4,0.1,25.8z M44.8,25.8v-0.1c0-11.2-8.2-20.4-19.5-20.4S5.9,14.2,5.9,25.5v0.1c0,11.3,8.2,20.4,19.5,20.4
		S44.8,37,44.8,25.8z"/>
	<path class="st0" d="M62.4,0.8h5.2l31.2,39.7V0.8h5.4v49.5h-4.5l-32-40.6v40.6h-5.4V0.8z"/>
	<path class="st0" d="M131.4,6h-16.6V0.8h38.9V6h-16.6v44.4h-5.7V6z"/>
	<path class="st0" d="M176.2,0.5h5.2L204,50.4h-6l-5.8-13.1h-27l-5.9,13.1h-5.7L176.2,0.5z M190,32.3L178.7,7l-11.3,25.3H190z"/>
	<path class="st0" d="M213.8,0.8h21.3c6.1,0,11,1.8,14.1,5c2.4,2.4,3.8,5.9,3.8,9.8v0.1c0,8.2-5.7,13-13.4,14.4l15.2,20.2h-6.9
		l-14.4-19.2h-14.2v19.2h-5.6V0.8z M234.6,26.1c7.4,0,12.7-3.8,12.7-10.2v-0.1c0-6.1-4.7-9.8-12.7-9.8h-15.3v20.1H234.6z"/>
	<path class="st0" d="M265.4,0.8h5.6v49.5h-5.6V0.8z"/>
	<path class="st0" d="M283.3,25.8v-0.1C283.3,12,293.6,0,308.7,0c15.1,0,25.2,11.8,25.2,25.5v0.1c0,13.7-10.3,25.6-25.3,25.6
		C293.5,51.2,283.3,39.4,283.3,25.8z M328.1,25.8v-0.1c0-11.2-8.2-20.4-19.5-20.4s-19.4,9.1-19.4,20.3v0.1
		c0,11.3,8.2,20.4,19.5,20.4S328.1,37,328.1,25.8z"/>
</g>
<g>
	<path class="st0" d="M108.1,63.3h-6.7v-2.1h15.7v2.1h-6.7v17.9h-2.3V63.3z"/>
	<path class="st0" d="M119.1,71.3L119.1,71.3c0-5.6,4.1-10.4,10.2-10.4c6.1,0,10.2,4.8,10.2,10.3v0.1c0,5.5-4.1,10.4-10.2,10.4
		C123.2,81.6,119.1,76.8,119.1,71.3z M137.2,71.3L137.2,71.3c0-4.6-3.3-8.3-7.9-8.3s-7.8,3.7-7.8,8.2v0.1c0,4.5,3.3,8.3,7.9,8.3
		S137.2,75.8,137.2,71.3z"/>
	<path class="st0" d="M144,72.9V61.2h2.3v11.5c0,4.3,2.3,6.7,6.1,6.7c3.7,0,6-2.2,6-6.6V61.2h2.3v11.5c0,5.8-3.3,8.9-8.3,8.9
		C147.4,81.6,144,78.5,144,72.9z"/>
	<path class="st0" d="M166,61.2h8.6c2.5,0,4.4,0.7,5.7,2c1,1,1.5,2.4,1.5,3.9v0.1c0,3.3-2.3,5.3-5.4,5.8l6.1,8.2h-2.8l-5.8-7.8h-5.7
		v7.8H166V61.2z M174.4,71.4c3,0,5.1-1.5,5.1-4.1v-0.1c0-2.5-1.9-3.9-5.1-3.9h-6.2v8.1H174.4z"/>
	<path class="st0" d="M186.9,61.2h2.3v20h-2.3V61.2z"/>
	<path class="st0" d="M193.7,78.3l1.4-1.7c2.1,1.9,4.1,2.8,6.9,2.8c2.7,0,4.5-1.4,4.5-3.4V76c0-1.9-1-2.9-5.2-3.8
		c-4.6-1-6.7-2.5-6.7-5.8v-0.1c0-3.1,2.8-5.5,6.6-5.5c2.9,0,5,0.8,7,2.5l-1.3,1.7c-1.9-1.5-3.7-2.2-5.8-2.2c-2.6,0-4.3,1.4-4.3,3.2
		v0.1c0,1.9,1,2.9,5.4,3.9c4.5,1,6.5,2.6,6.5,5.7v0.1c0,3.4-2.9,5.7-6.8,5.7C198.7,81.5,196.1,80.5,193.7,78.3z"/>
	<path class="st0" d="M213.4,61.2h2.3l7.3,10.9l7.3-10.9h2.3v20h-2.3V65L223,75.8h-0.1l-7.3-10.7v16.2h-2.2V61.2z"/>
</g>
<g>
	<path class="st1" d="M13.8,40c0.6,0.1,1.1,0.2,1.5,0.2c-0.1-0.8-0.8-0.5-1.2-0.7C14.2,39.5,14,39.8,13.8,40z"/>
	<path class="st1" d="M13.7,36.3c-0.3,0-0.6,0.1-0.8,0.1c0.1,0.6,0.5,0.8,1.4,0.7c-0.1-0.2-0.1-0.4-0.2-0.6
		C14,36.4,13.8,36.3,13.7,36.3z"/>
	<path class="st1" d="M22,34c-0.5,0-0.9-0.1-1.3-0.1C20.9,34.5,21.3,34.6,22,34z"/>
	<path class="st1" d="M14.2,36.4c0.2,0,0.3,0.1,0.5,0.1c0.3,0,0.7-0.2,1-0.1c0.7,0.2,1.5-0.2,1.7-0.8c-0.5,0.2-1,0.4-1.6,0.5
		c0-0.1,0-0.1-0.1-0.2c0.1-0.1,0.2-0.2,0.3-0.4C15.3,35.9,14.8,36.1,14.2,36.4z"/>
	<path class="st1" d="M24.3,33.8c0.2,0.8,0.9,0.7,1.5,1C25.6,33.9,24.7,34.2,24.3,33.8z"/>
	<path class="st1" d="M20.4,33.6c-0.6-0.5-1,0.1-1.5,0.2c0.3,0.3,0.6,0.6,0.9,0.9c0,0,0.1,0,0.1-0.1c0-0.2-0.1-0.4-0.1-0.7
		c0.2,0,0.5,0,0.8,0.1C20.5,33.9,20.5,33.7,20.4,33.6z"/>
	<path class="st1" d="M5.1,38.4c0.4,0.1,0.8,0.4,1.2,0.4c0.2,0,0.5-0.1,0.8-0.2c0.3-0.1,0.6-0.3,0.9-0.5c0.1-0.1,0-0.3,0.1-0.4
		c-0.2,0-0.4-0.1-0.4,0c-0.2,0.1-0.3,0.4-0.5,0.5c-0.1,0.1-0.3,0.2-0.5,0.2c-0.5,0-1-0.1-1.5-0.2C5.1,38.2,5.1,38.3,5.1,38.4z"/>
	<path class="st1" d="M5.5,33.8c-0.1,0.3-0.1,0.4-0.2,0.5c-0.1,0-0.1,0.1-0.2,0.1C5,34.3,5,34.1,4.9,34c-0.2,0.1-0.3,0.2-0.5,0.3
		c0.3,0.1,0.7,0.2,0.7,0.3c0.2,0.6,0.5,0.3,0.8,0.2c0.2-0.1,0.3-0.1,0.5-0.2c0,0,0-0.1,0-0.3c0.3,0.1,0.7,0.2,0.7-0.3
		c0.6,0.5,1.1,0.2,1.7-0.1c-0.6-0.5-0.7-1.3-1.5-1.5c-0.1,0-0.3-0.2-0.4-0.3c-0.5-0.6-0.8-0.7-1.5,0c0.2,0.1,0.4,0.2,0.5,0.2
		c-0.2,0.2-0.3,0.4-0.5,0.7c0.3-0.1,0.5-0.1,0.5-0.1c0.4,0.3,0.8,0.6,1.3,0.9c-0.5,0.2-0.9,0.3-1.4,0.4C5.8,34.3,5.6,34.1,5.5,33.8z
		"/>
	<path class="st1" d="M3,34.8c0.3-0.3,0.6-0.5,1-0.9c-0.7,0.3-1.3,0.5-1.9,0.7c0,0,0-0.1-0.1-0.1c0.1-0.1,0.1-0.2,0.2-0.3
		c0,0-0.1,0-0.1-0.1C2,34.1,2,34.2,1.9,34.3C1.9,34.5,2,34.6,2,34.8C2.3,34.9,2.6,35.2,3,34.8z"/>
	<path class="st1" d="M5.3,36.2c0,0.1-0.1,0.1-0.1,0.2C5.6,36.6,6,36.8,6.4,37c0-0.1,0.1-0.1,0.1-0.2C6.3,36.2,5.7,36.3,5.3,36.2z"
		/>
	<path class="st1" d="M2.3,32.5c-0.3,0-0.8-0.4-1.1,0c0,0.2,0.1,0.3,0.1,0.5c0.2,0.1,0.5,0.3,0.8,0.5c0-0.2-0.1-0.3-0.1-0.3
		c0,0,0,0,0,0c0,0,0,0,0,0c0,0,0,0,0,0c0,0,0,0,0,0c0.5,0.1,1,0.1,1.5,0.1c0.1,0,0.2-0.2,0.2-0.3c-0.4-0.1-0.6-0.1-0.8-0.2
		c0,0,0-0.2,0-0.3C2.7,32.5,2.5,32.5,2.3,32.5z"/>
	<path class="st1" d="M9.8,31c0-0.1,0-0.1,0-0.2c-0.4,0-0.8,0-1.3,0c0,0.1,0.1,0.4,0.2,0.4C9,31.2,9.4,31.1,9.8,31z"/>
	<path class="st1" d="M8.1,40.6c-0.7,0.1-1.3,0.1-2,0.2c0.2,0.6,0.9,0.8,1.6,0.5c0-0.1-0.1-0.3-0.1-0.4c0.2,0,0.4-0.1,0.6-0.1
		C8.1,40.8,8.1,40.7,8.1,40.6z"/>
	<path class="st1" d="M18.1,35.9c-0.1-0.3-0.2-0.5-0.3-0.8c0,0.6,0.1,1,0.7,1c0.1,0,0.2,0.1,0.2,0.1c0,0.6,0.4,0.4,0.7,0.3
		c0.4-0.2,0.6-0.1,0.9,0.1c0.1,0.1,0.2,0.1,0.3,0.1c-0.4-1-0.5-1.1-1.2-0.7c-0.1-0.2-0.2-0.3-0.4-0.6c-0.1,0.2-0.2,0.3-0.3,0.5
		C18.5,35.6,18.4,35.5,18.1,35.9z"/>
	<path class="st1" d="M46.4,33.4c-0.4-0.1-0.7-0.2-1-0.3c0,0.1-0.1,0.1-0.1,0.2c0.3,0.2,0.6,0.4,0.9,0.6c0.5,0.3,0.9,0.1,1.2-0.3
		c0.1,0.1,0.1,0.3,0.1,0.3c0.2,0,0.4,0.1,0.7,0.1c0.1-0.3,0.2-0.7,0.3-1c-0.3-0.3-0.9-0.3-1.1,0c-0.1-0.1-0.3-0.1-0.5-0.2
		c0.1,0.2,0.1,0.3,0.2,0.6c-0.3-0.2-0.5-0.3-0.7-0.4C46.5,33.1,46.4,33.2,46.4,33.4z"/>
	<path class="st1" d="M43.1,33.4c0-0.1,0-0.1,0-0.2c-0.4,0-0.8,0-1.2,0c0.1,0.1,0.1,0.3,0.2,0.3C42.4,33.6,42.7,33.5,43.1,33.4z"/>
	<path class="st1" d="M39,40.2c0.6,0,1.1,0.1,1.6,0c0.7-0.1,0.8-0.7,0.9-1.3c-0.3,0.2-0.5,0.4-0.8,0.5c-0.3-0.2-0.5-0.3-0.8-0.5
		c0,0-0.1,0.1-0.1,0.1c0.1,0.2,0.2,0.3,0.3,0.6c-0.4,0-0.7,0.1-1.1,0.1C39.2,39.8,39.2,39.9,39,40.2z"/>
	<path class="st1" d="M45.1,35.3c0.8,0.8,1.4,1,2.1,0.8c0.1-0.2,0.2-0.4,0.3-0.7C46.6,35.5,45.9,35.4,45.1,35.3z"/>
	<path class="st1" d="M0.9,30.5c0,0-0.1,0-0.1,0c0.1,0.4,0.2,0.8,0.3,1.2c0.4,0,0.8,0.4,1.2,0.5c0,0,0.1-0.1,0.1-0.1
		c-0.2-0.2-0.3-0.4-0.4-0.5c-0.1-0.4-0.1-0.6-0.2-0.8c0.4-0.2,0.7,0.8,1.2,0.2c-0.1-0.2-0.2-0.3-0.3-0.5c0.2,0,0.3,0.1,0.4,0.1
		c0,0,0.1-0.1,0.1-0.1C3.1,30.3,3,30.2,3,30.1c-0.1-0.5-0.2-0.8-0.3-1.1c0.2,0,0.4,0,0.7,0c0.1,0.2,0.1,0.5,0.2,0.7
		c0.4-0.7-0.2-1.1-0.4-1.7c0.2,0.2,0.4,0.3,0.6,0.5c0-0.4,0.1-0.8,0.1-1.1c0,0,0.1,0,0.1,0c0,0.3,0.1,0.5,0.1,0.9
		c0.2-0.2,0.3-0.3,0.6-0.5c-0.3,0.7-0.5,1.2-0.8,1.7c0.1,0,0.1,0.1,0.2,0.1c0.3-0.4,0.6-0.7,1.2-0.8C5,29.1,5,29.4,5.3,29.6
		c-0.2,0-0.5,0-0.8,0c0.2,0.2,0.4,0.3,0.5,0.5c-0.3,0-0.5,0.5-0.7,0.1c-0.1,0.1-0.2,0.2-0.2,0.3c0,0.4,0,0.8,0.1,1.2
		c0.1,0,0.1,0.1,0.2,0.1c0.3-0.4,0.6-0.9,0.9-1.3c0.3-0.1,0.5-0.2,0.8-0.4c-0.1,0.2-0.1,0.3-0.2,0.5c0.1,0.1,0.2,0.1,0.4,0.2
		C6.1,31,6,31.1,5.8,31.4c0.4,0.1,0.8,0.2,1.1,0.3c0-0.1,0.1-0.3,0.1-0.4c0.2,0.1,0.3,0.2,0.6,0.4c0-0.4,0-0.6-0.1-0.9
		c0.2,0,0.4,0,0.7,0.1c-0.1-0.7-1.2-0.8-1-1.7c0.4,0,0.8,0,1.1,0c0,0,0.1-0.2,0.1-0.3c0.3,0.1,0.7,0.3,0.9,0.2
		c0.5-0.3,0.8-0.8,1.2-1.3c-0.5,0.4-1.1,0.6-1.9,0.7c0.2-0.3,0.3-0.4,0.5-0.7c-0.3,0.2-0.5,0.3-0.9,0.5c0-0.3,0-0.5,0-0.8
		c-0.1,0.1-0.3,0.3-0.7,0.5c0.1-0.3,0.1-0.5,0.2-0.6c-0.3-0.1-0.6-0.2-0.9-0.3c0.4-0.2,0.6-0.4,1-0.6c0.2,0.1,0.5,0.4,1,0.7
		c-0.1-0.3-0.1-0.4-0.2-0.6c0.6,0.4,1.1,0.8,1.8,0.4c0.1,0,0-0.3,0.1-0.5c-0.2,0.1-0.3,0.2-0.4,0.3c-0.2-0.1-0.4-0.2-0.6-0.3
		c0-0.1,0.1-0.2,0.1-0.3c-0.4,0-0.7-0.1-1.3-0.1c0.2-0.2,0.4-0.4,0.6-0.5c-0.1-0.2-0.3-0.5-0.5-0.8c0,0,0.1-0.1,0.2-0.2
		c-0.1-0.2-0.2-0.4-0.3-0.6c0.5-0.1,0.7,0.9,1.3,0.2c-0.1-0.2-0.2-0.4-0.3-0.7c0.2,0,0.3,0.1,0.5,0.1c0,0,0.1-0.1,0.1-0.1
		c-0.1-0.1-0.3-0.3-0.3-0.3c-0.1-0.5-0.2-1-0.3-1.5c0.2,0.1,0.3,0.1,0.5,0.2c0.1-0.1,0.1-0.2,0.2-0.4c0.1,0.4,0.2,0.8,0.3,1.2
		c0.4-0.8-0.2-1.4-0.4-2.2c0.2,0.3,0.4,0.4,0.6,0.6c0-0.5,0.1-0.9,0.1-1.4c0,0,0.1,0,0.1,0c0,0.3,0.1,0.7,0.1,1.1
		c0.2-0.2,0.3-0.3,0.4-0.5c0,0,0.1,0,0.1,0c-0.2,0.6-0.4,1.3-0.7,1.9c0.1,0,0.2,0.1,0.2,0.1c0.1-0.3,0.2-0.5,0.3-0.7
		c0.3-0.1,0.5-0.2,0.8-0.3c-0.1,0.2-0.2,0.3-0.2,0.5c0.1,0.1,0.2,0.3,0.4,0.5c-0.3,0-0.6,0-0.9,0c0.2,0.3,0.4,0.5,0.6,0.7
		c0,0.1,0,0.1-0.1,0.2c-0.2,0-0.5-0.1-0.7-0.1c-0.1,0-0.3,0.2-0.3,0.4c0,0.5,0.1,1,0.1,1.5c0.1,0,0.1,0.1,0.2,0.1
		c0.2-0.4,0.4-0.8,0.7-1.2c0.1-0.2,0-0.7,0.5-0.5c0.1,0,0.2-0.3,0.5-0.3c-0.1,0.2-0.1,0.4-0.2,0.6c0.1,0,0.3,0.1,0.4,0.2
		c-0.1,0.2-0.3,0.5-0.4,0.7c0.1,0.1,0.3,0.2,0.6,0.4c-0.2,0.2-0.4,0.3-0.6,0.4c-0.1,0.1-0.2,0.1-0.4,0.2c0.1,0.1,0.2,0.2,0.4,0.3
		c0.1,0,0.1,0.1,0.2,0.1c-0.2,0.3-0.4,0.5-0.6,0.9c0.3-0.1,0.5-0.2,0.5-0.2c0.4,0.4,0.8,0.7,1.3,1.2c-0.5,0.2-0.8,0.3-1.3,0.5
		c-0.1-0.1-0.2-0.3-0.4-0.6c-0.1,0.2-0.1,0.4-0.2,0.6c-0.1-0.2-0.3-0.3-0.4-0.4c-0.1,0.1-0.1,0.2-0.3,0.4c-0.1-0.3-0.2-0.6-0.3-0.8
		c0,0.8,0.1,0.9,0.8,1.1c0.1,0.2,0.2,0.5,0.2,0.5c0.3,0,0.6-0.1,0.9-0.2c0-0.1,0-0.1,0-0.2c0.2,0.2,0.5,0.4,0.7,0.6
		c0.4-0.4,0.8-0.1,1.3,0.1c-0.3,0.3-0.6,0.6-0.9,0.9c-0.1,0-0.2-0.1-0.5-0.3c0.1,0.2,0.2,0.4,0.3,0.6c0,0,0,0-0.1,0.1
		c-0.2-0.1-0.3-0.2-0.6-0.4c0,0.2-0.1,0.4-0.1,0.5c-0.3-0.1-0.7-0.2-1-0.3c0,0.4,0.3,0.8,1,1c0.3,0.1,0.7-0.1,1-0.2c0,0,0,0,0,0l0,0
		c0,0,0.1,0.1,0.1,0.1c0.4,0,0.8,0,1.1,0.1c-0.2,0.3-0.4,0.5-0.6,0.8c-0.1,0-0.2-0.1-0.3-0.1c-0.2,0.4-0.3,0.8-0.6,1.1
		c-0.1,0.1-0.5,0-0.8-0.1c-0.4,0-0.7,0-1.1-0.1c0.7,0.9,1.4,1.2,2.3,0.8c0,0.2,0,0.3,0,0.4c0,0,0.1,0.1,0.2,0
		c0.7-0.3,1.1,0.2,1.7,0.4c0.3,0.1,0.7,0.2,1.1,0.2c0.1,0,0.2-0.2,0.3-0.3c-0.5,0.1-0.9-0.1-0.9-0.4c-0.3,0-0.7-0.1-1-0.1
		c0,0,0-0.1,0-0.1c0.1-0.1,0.3-0.2,0.5-0.3c-0.2-0.2-0.3-0.4-0.4-0.4c-0.1-0.3-0.1-0.5-0.2-0.8c0.4-0.1,0.7,0.7,1.2,0.2
		c-0.1-0.1-0.1-0.3-0.2-0.4c0.1-0.4,0.1-0.4,0.2-0.4c-0.1-0.4-0.2-0.7-0.3-1.1c0.2,0,0.4,0,0.7,0c0,0.1,0.1,0.4,0.2,0.7
		c0.1,0,0.1-0.1,0.2-0.1c-0.2-0.5-0.3-0.9-0.5-1.4c0.2,0.1,0.3,0.2,0.5,0.4c0-0.4,0-0.7,0.1-1c0,0,0.1,0,0.1,0
		c0,0.2,0.1,0.5,0.2,0.8c0.1-0.1,0.3-0.2,0.5-0.4c-0.2,0.5-0.5,1-0.7,1.5c0.1,0,0.1,0.1,0.2,0.1c0.1-0.2,0.2-0.4,0.3-0.5
		c0.2,0,0.5-0.1,0.6-0.1c0,0.2,0.1,0.4,0.1,0.6c-0.2,0-0.4,0-0.7,0c0.2,0.2,0.4,0.3,0.5,0.5c0,0.1,0,0.1,0,0.2c-0.2,0-0.5-0.1-0.7,0
		c-0.1,0-0.3,0.3-0.3,0.4c0,0.3,0.1,0.6,0.1,1.1c0.2-0.2,0.5-0.3,0.6-0.5c0.2-0.6,0.7-0.8,1.2-1c-0.1,0.2-0.1,0.3-0.2,0.5
		c0.5-0.1,1-0.1,1.5-0.2c0,0,0-0.1,0-0.1c0.3,0.1,0.7,0.3,0.9,0.2c0.5-0.3,1-0.6,1.1-1.1c-0.6,0.3-1.2,0.5-1.7,0.8
		c0-0.1-0.1-0.1-0.1-0.2c0.1-0.1,0.2-0.3,0.4-0.5c-0.3,0.1-0.5,0.3-0.8,0.4c-0.1-0.2-0.1-0.3-0.2-0.5c-0.1,0.1-0.2,0.1-0.5,0.2
		c0.1-0.2,0.1-0.4,0.2-0.5c-0.3-0.1-0.5-0.1-0.9-0.2c0.4-0.2,0.7-0.4,1-0.6c0.2,0.2,0.6,0.4,1,0.6c-0.1-0.2-0.1-0.3-0.1-0.4
		c0.4,0.1,0.7,0.4,1.1,0.4c0.3,0,0.9,0.2,0.6-0.6c-0.1,0.1-0.3,0.2-0.4,0.2c-0.2-0.1-0.3-0.2-0.5-0.3c0,0,0.1-0.2,0.1-0.2
		c-0.4,0-0.8-0.1-1.1-0.1c0,0,0-0.1,0-0.1c0.1-0.1,0.3-0.2,0.5-0.3c-0.2-0.2-0.3-0.4-0.6-0.7c0,0,0.1-0.1,0.2-0.2
		c-0.1-0.2-0.2-0.3-0.3-0.5c0,0,0.1-0.1,0.1-0.1c0.2,0.1,0.4,0.3,0.6,0.4c0.1,0.1,0.3,0.1,0.5,0.1c0-0.2,0-0.3-0.1-0.5
		c0-0.1,0-0.1,0-0.1c0.2-0.1,0.3-0.2,0.4-0.2c-0.1-0.1-0.2-0.2-0.3-0.2c-0.1-0.5-0.2-0.9-0.3-1.3c0.2,0,0.4,0,0.7,0
		c0.1,0.2,0.1,0.5,0.2,0.8c0.4-0.7-0.2-1.2-0.3-1.9c0.1,0.2,0.2,0.3,0.3,0.5c0,0,0.1,0,0.1,0c0-0.4,0-0.8,0-1.3c0.1,0,0.1,0,0.2,0
		c0.1,0.3,0.1,0.7,0.2,1c0,0,0.1,0.1,0.1,0.1c0.1-0.2,0.1-0.3,0.2-0.5c0.1,0,0.1,0.1,0.2,0.1c-0.2,0.6-0.4,1.1-0.7,1.7
		c0.1,0,0.1,0.1,0.2,0.1c0.1-0.2,0.3-0.4,0.4-0.6c0.2-0.1,0.4-0.1,0.7-0.2c-0.2,0.3-0.3,0.6,0.1,0.8c-0.2,0-0.5,0-0.8,0
		c0.2,0.2,0.4,0.4,0.6,0.6c-0.2,0.1-0.4,0.2-0.6,0.3c0-0.1-0.1-0.2-0.1-0.3c-0.4,0.1-0.4,0.8-0.1,1.9c0.3-0.4,0.5-0.7,0.7-1
		c0.2-0.3,0.1-0.7,0.6-0.6c0.1,0,0.3-0.2,0.5-0.3c-0.1,0.2-0.1,0.4-0.2,0.6c0.1,0,0.3,0.1,0.4,0.1c-0.1,0.2-0.3,0.4-0.4,0.6
		c0.2,0.1,0.3,0.2,0.5,0.3c-0.2,0.2-0.4,0.3-0.6,0.5c-0.1,0.1-0.2,0.1-0.4,0.1c0.1,0.1,0.2,0.2,0.4,0.3c0,0,0.1,0.1,0.1,0.1
		c-0.2,0.2-0.3,0.5-0.5,0.8c0.3-0.1,0.4-0.2,0.5-0.2c0.4,0.4,0.8,0.7,1.3,1.1c-0.5,0.2-0.8,0.3-1.3,0.5c-0.1-0.1-0.2-0.3-0.4-0.5
		c-0.1,0.2-0.1,0.3-0.2,0.6c-0.2-0.2-0.3-0.3-0.4-0.4c-0.1,0.1-0.3,0.2-0.5,0.4c0.2,0.1,0.5,0.1,0.7,0.2c0.1,0.5,0.3,0.7,0.7,0.4
		c0.5-0.4,0.8-0.1,1,0.3c0.3-0.2,0.7-0.4,1-0.7c0.3,0.2,0.6,0.4,1.1,0.6c-0.1-0.2-0.1-0.3-0.1-0.4c0.4,0.1,0.7,0.3,1.1,0.3
		c0.3,0,0.8,0.1,0.7-0.4c-0.4-0.1-0.7-0.1-1-0.2c0.1-0.1,0.1-0.2,0.1-0.3c-0.4,0-0.7-0.1-1.3-0.1c0.3-0.2,0.4-0.3,0.6-0.4
		c-0.2-0.2-0.3-0.4-0.4-0.5c0-0.3-0.1-0.5-0.1-0.8c0.4-0.1,0.7,0.7,1.2,0.2c-0.1-0.2-0.2-0.3-0.2-0.5c0.2-0.1,0.3-0.1,0.5-0.2
		c-0.1-0.1-0.2-0.2-0.3-0.2c-0.1-0.4-0.2-0.8-0.3-1.2c0.2,0,0.4,0,0.7,0c0.1,0.2,0.1,0.5,0.2,0.8c0.1,0,0.1,0,0.2,0
		c0-0.3,0-0.5-0.1-0.8c-0.1-0.3-0.3-0.5-0.3-0.8c0.1,0.1,0.2,0.2,0.4,0.3c0-0.4,0.1-0.8,0.1-1.1c0,0,0.1,0,0.1,0
		c0,0.3,0.1,0.6,0.2,0.9c0.2-0.1,0.3-0.2,0.5-0.4c-0.3,0.6-0.5,1.2-0.7,1.7c0.1,0,0.1,0.1,0.2,0.1c0.1-0.2,0.3-0.4,0.4-0.6
		c0.2-0.1,0.5-0.1,0.6-0.1c0,0.2,0.1,0.4,0.2,0.7c-0.1,0-0.4,0-0.7,0c0.3,0.2,0.5,0.3,0.7,0.5c0,0.1-0.1,0.1-0.1,0.2
		c-0.2,0-0.5-0.1-0.7-0.1c-0.1,0-0.3,0.2-0.3,0.3c0,0.4,0.1,0.8,0.1,1.4c0.3-0.4,0.6-0.6,0.8-0.9c0.2-0.3,0.1-0.7,0.7-0.6
		c0.1,0,0.2-0.2,0.3-0.4c0,0,0.1,0.1,0.1,0.1c0,0.2-0.1,0.4-0.2,0.6c0.1,0,0.2,0.1,0.4,0.1c-0.1,0.2-0.3,0.4-0.4,0.6
		c0.1,0.1,0.3,0.2,0.5,0.3c-0.3,0.2-0.6,0.3-1,0.6c0.3,0.1,0.6,0.3,0.9,0.4c0.1,0,0.2-0.1,0.4-0.3c0.1,0.1,0.2,0.2,0.5,0.3
		c0-0.3-0.1-0.6-0.1-0.9c0.2,0,0.5,0,0.9,0c-0.5-0.5-0.9-1-1.4-1.5c0.6-0.1,1.1-0.3,1.7-0.4c0.2,0,0.5,0.2,0.7,0.2
		c0.5-0.2,1-0.9,1.1-1.2c-0.5,0.2-1.1,0.5-1.7,0.8c0-0.1-0.1-0.1-0.1-0.2c0.1-0.2,0.2-0.3,0.4-0.6c-0.3,0.2-0.5,0.3-0.9,0.4
		c0-0.3,0.1-0.6,0.1-0.9c-0.2,0.1-0.3,0.3-0.5,0.4c0,0-0.1,0-0.1-0.1c0-0.2,0.1-0.3,0.1-0.5c-0.3-0.1-0.6-0.2-1-0.3
		c0.4-0.2,0.7-0.4,1-0.6c0.2,0.1,0.6,0.4,0.9,0.6c0,0,0-0.1,0.1-0.1C34,27.1,34,27,33.9,26.9c0.4,0.1,0.8,0.4,1.1,0.4
		c0.7,0.1,0.8-0.1,0.6-0.6c-0.1,0.1-0.2,0.2-0.3,0.2c-0.2-0.1-0.3-0.2-0.5-0.3c0-0.1,0.1-0.2,0.1-0.3c-0.4-0.1-0.8-0.1-1.2-0.2
		c0,0,0-0.1,0-0.1c0.2-0.1,0.3-0.2,0.5-0.3c-0.2-0.3-0.3-0.5-0.5-0.8c0,0,0.1-0.1,0.2-0.2c-0.1-0.2-0.2-0.4-0.3-0.6
		c0,0,0.1-0.1,0.1-0.1c0.3,0.2,0.6,0.4,0.9,0.6c0.7-0.2,0-0.6,0.1-0.9c0.1,0,0.2,0.1,0.4,0.1c0,0,0.1-0.1,0.1-0.1
		c-0.1-0.2-0.2-0.3-0.3-0.4c-0.1-0.5-0.2-0.9-0.3-1.4c0.2-0.1,0.5,0.6,0.6-0.2c0.1,0.5,0.2,0.9,0.3,1.2c0.1,0,0.1,0,0.2,0
		c-0.1-0.3-0.1-0.7-0.2-1c-0.1-0.3-0.3-0.6-0.4-1c0.1,0.2,0.3,0.3,0.5,0.5c0-0.6,0-1,0-1.5c0.1,0,0.1,0,0.2,0c0,0.4,0.1,0.7,0.2,1.2
		c0.2-0.2,0.3-0.4,0.4-0.5c0,0,0.1,0,0.1,0c-0.2,0.6-0.5,1.3-0.7,1.9c0.1,0,0.1,0.1,0.2,0.1c0.2-0.5,0.5-0.9,1.1-0.9
		C37,21.8,37,22,36.8,22.2c0.1,0.1,0.3,0.1,0.5,0.2c0,0.1-0.1,0.1-0.1,0.2c-0.2,0-0.5,0-0.8,0c0.2,0.3,0.4,0.5,0.6,0.7
		c-0.2,0.1-0.4,0.2-0.6,0.3c0-0.1-0.1-0.2-0.1-0.3c-0.4,0.1-0.4,1.1-0.1,2.1c0.4-0.7,0.7-1.2,0.9-1.7c0.3-0.2,0.5-0.3,0.8-0.5
		c-0.1,0.2-0.1,0.4-0.2,0.7c0.1,0.1,0.3,0.1,0.4,0.2c-0.1,0.2-0.3,0.5-0.4,0.7c0.2,0.1,0.3,0.2,0.5,0.4c-0.4,0.2-0.7,0.5-1.1,0.7
		c0.3,0.1,0.5,0.2,0.7,0.3c-0.2,0.3-0.4,0.5-0.6,0.9c0.3-0.1,0.5-0.2,0.6-0.2c0.4,0.4,0.8,0.7,1.3,1.2c-0.5,0.2-0.8,0.3-1.3,0.5
		c-0.1-0.1-0.2-0.3-0.4-0.6c-0.1,0.2-0.1,0.4-0.2,0.6c-0.1-0.2-0.3-0.3-0.4-0.4c-0.1,0.1-0.3,0.2-0.5,0.4c0.2,0.1,0.5,0.2,0.7,0.3
		c0.1,0.2,0.2,0.5,0.2,0.5c0.3,0,0.6-0.2,1.1-0.3c0.1,0.1,0.3,0.3,0.5,0.5c0,0,0-0.1,0-0.1c0.4,0,0.9,0.1,1.4,0.2
		c-0.4,0.4-0.7,0.7-1,1c-0.1,0-0.2-0.1-0.5-0.2c0.1,0.2,0.2,0.4,0.3,0.7c-0.3-0.2-0.5-0.3-0.7-0.5c-0.1,0.2-0.1,0.4-0.2,0.6
		c-0.3-0.1-0.7-0.2-1.1-0.4c0.1,0.6,0.6,0.7,0.9,1c0.5,0.3,0.8,0,1.1-0.4c0.1,0.1,0.1,0.3,0.2,0.3c0.4,0,0.7,0.1,1.1,0.1
		c-0.2,0.3-0.4,0.5-0.6,0.7c-0.1,0-0.2-0.1-0.3-0.1c-0.2,0.4-0.4,0.8-0.6,1.1c-0.7-0.1-1.3-0.2-2-0.3c0.8,1,1.5,1.3,2.4,0.8
		c0,0.2,0,0.3,0,0.6c0.3-0.1,0.5-0.2,0.8-0.3c-0.2-0.2-0.3-0.3-0.4-0.4c0.3,0,0.5-0.1,0.8-0.1c0-0.1,0-0.1,0-0.2
		c0.2,0.1,0.3,0.2,0.6,0.3c0-0.3,0-0.5-0.1-0.8c0.2,0,0.5,0,0.8,0c-0.5-0.5-0.9-0.9-1.4-1.4c0.6-0.1,1.1-0.2,1.6-0.3
		c0,0,0-0.1,0-0.1c0.3,0.1,0.6,0.3,0.8,0.2c0.5-0.3,1-0.6,1.2-1.1c-0.6,0.2-1.2,0.5-1.7,0.7c0-0.1-0.1-0.1-0.1-0.2
		c0.1-0.1,0.2-0.3,0.4-0.6c-0.4,0.2-0.6,0.3-0.8,0.4c-0.1-0.2-0.1-0.3-0.2-0.5c-0.1,0-0.3,0.1-0.5,0.1c0.1-0.2,0.1-0.3,0.1-0.5
		c-0.3-0.1-0.6-0.2-1-0.3c0.4-0.2,0.7-0.4,1-0.6c0.2,0.1,0.5,0.4,0.9,0.6c0-0.2-0.1-0.3,0-0.3c0.6,0,1.1,0.1,1.7,0.1
		c0,0,0-0.3,0.1-0.5c-0.2,0.1-0.3,0.2-0.5,0.3c-0.2-0.2-0.3-0.4-0.5-0.6c-0.3,0-0.6-0.1-1-0.2c0,0,0-0.1,0-0.1
		c0.2-0.1,0.3-0.2,0.5-0.3c-0.2-0.2-0.3-0.5-0.5-0.7c0,0,0.1-0.1,0.2-0.2c-0.1-0.2-0.2-0.3-0.3-0.5c0.5-0.2,0.7,0.9,1.3,0.2
		c-0.1-0.2-0.2-0.3-0.3-0.6c0.2,0,0.3,0,0.5,0c0,0,0.1-0.1,0.1-0.1c-0.1-0.1-0.3-0.3-0.3-0.3c-0.1-0.5-0.2-0.9-0.3-1.3
		c0.2-0.1,0.5,0.5,0.6-0.2c0.1,0.5,0.2,0.8,0.3,1.2c0.4-0.7-0.2-1.3-0.3-1.9c0.1,0.2,0.2,0.3,0.3,0.5c0,0,0.1,0,0.1,0
		c0-0.4,0-0.8,0.1-1.2c0,0,0.1,0,0.1,0c0,0.3,0.1,0.6,0.2,1.1c0.2-0.3,0.2-0.5,0.3-0.6c0.1,0.1,0.1,0.1,0.2,0.2
		c-0.1,0.3-0.3,0.5-0.4,0.8c-0.1,0.3-0.2,0.6-0.2,1c0.3-0.5,0.7-0.7,1.2-0.9c-0.1,0.2-0.2,0.3-0.3,0.5c0.1,0.1,0.3,0.1,0.4,0.2
		c0,0-0.1,0.1-0.1,0.1c-0.2,0-0.5,0-0.8,0c0.2,0.3,0.4,0.5,0.6,0.7c-0.3,0-0.5,0.5-0.8,0c-0.1,0.1-0.2,0.2-0.3,0.2c0,0.5,0,1,0,1.5
		c0.1,0,0.2,0.1,0.3,0.1c0.1-0.2,0.3-0.4,0.4-0.6c0.3-0.6,0.4-1.2,1.3-1.3c0,0.1-0.1,0.3-0.2,0.5c0.1,0,0.3,0.1,0.4,0.2
		c-0.1,0.2-0.3,0.4-0.4,0.7c0.2,0.1,0.3,0.2,0.5,0.3c-0.4,0.2-0.7,0.4-1.1,0.7c0.3,0.1,0.5,0.2,0.7,0.3c-0.2,0.2-0.3,0.5-0.6,0.8
		c0.3-0.1,0.5-0.1,0.5-0.1c0.5,0.4,0.8,0.7,1.3,1.1c-0.5,0.2-0.9,0.3-1.3,0.5c-0.1-0.1-0.2-0.3-0.4-0.5c-0.1,0.2-0.1,0.3-0.2,0.5
		c-0.1-0.2-0.3-0.3-0.4-0.4c-0.1,0.1-0.1,0.2-0.2,0.3c-0.1-0.1-0.2-0.2-0.3-0.3c0,0-0.1,0.1-0.1,0.1c0.3,0.2,0.5,0.4,0.9,0.6
		c0,0,0.1,0.3,0.2,0.3c0.3,0,0.6-0.2,1-0.3c0.5,0.3,1,0.3,1.2-0.1c0.2,0.1,0.3,0.2,0.6,0.4c0-0.4-0.1-0.6-0.1-0.9
		c0.2,0,0.4,0,0.9,0.1c-0.5-0.5-0.9-1-1.4-1.6c0.6-0.1,1.1-0.2,1.6-0.3c0,0,0-0.1-0.1-0.1c0.1,0,0.2,0.1,0.3,0.1c0-0.1,0-0.2,0-0.3
		c0-0.1-0.1-0.1-0.1-0.2c0-0.1,0.1-0.1,0.1-0.2c0-0.1,0-0.2,0-0.3c-0.2,0.1-0.4,0.2-0.7,0.4c0-0.4,0.1-0.6,0.1-0.9
		c-0.2,0.1-0.3,0.3-0.7,0.5c0.1-0.3,0.1-0.5,0.2-0.6c-0.3-0.1-0.6-0.2-0.9-0.3c0.4-0.2,0.6-0.4,1-0.6c0.2,0.1,0.6,0.4,1.1,0.7
		c-0.1-0.3-0.2-0.4-0.2-0.6c0.1,0.1,0.2,0.1,0.3,0.2c0-0.3,0-0.6,0-0.8c0,0,0,0,0,0c-0.1,0-0.3-0.1-0.4-0.1c0.1-0.1,0.3-0.3,0.4-0.5
		c-0.1-0.2-0.3-0.5-0.5-0.8c0,0,0.1-0.1,0.2-0.2c-0.1-0.2-0.2-0.4-0.3-0.6c0.3-0.1,0.4,0.1,0.6,0.3c-0.7-13-11.5-23.3-24.6-23.3
		c-13.6,0-24.7,11-24.7,24.7c0,1.7,0.2,3.3,0.5,4.8C0.8,30.4,0.8,30.4,0.9,30.5z"/>
	<path class="st1" d="M49,30.9C49,30.9,49,30.9,49,30.9C49,30.9,49,30.9,49,30.9C49,30.9,49,30.9,49,30.9z"/>
	<path class="st1" d="M30.8,37.6c0.9,0.9,1.6,1,2.4,0.6c0.1-0.4,0.2-0.6,0.4-1C32.7,38,31.7,37.5,30.8,37.6z"/>
	<path class="st1" d="M26.3,33.6c0.2,0.1,0.3,0.2,0.4,0.3c-0.1,0.1-0.1,0.3-0.2,0.5c0.5-0.1,0.8-0.2,1.3-0.3c0.2,0.2,0.6,0.4,1,0
		c0.3-0.3,0.8-0.4,0.8-0.8c-0.6,0.2-1.1,0.4-1.7,0.6c0-0.1,0-0.1-0.1-0.2c0.1-0.1,0.1-0.2,0.3-0.4c-0.3,0.1-0.5,0.2-0.8,0.3
		c0-0.3,0.1-0.5,0.1-0.7C27,33.1,26.7,33.3,26.3,33.6z"/>
	<path class="st1" d="M32.7,36.2c-0.2-0.4-1-0.7-1.8-0.6C31.3,36.2,32.2,36.5,32.7,36.2z"/>
	<path class="st1" d="M31.2,33.2c-0.1,0.2-0.2,0.3-0.2,0.4c-0.2,0-0.3-0.6-0.7,0c-0.1-0.3-0.2-0.5-0.3-0.8c0.1,0.8,0.1,0.8,0.8,1
		c0,0.5,0.3,0.6,0.7,0.3c0.3-0.2,0.5-0.1,0.8,0c0.4,0.2,1.2,0.2,1.6-0.1c-0.7-0.2-0.5-1.3-1.4-1.2c0.1,0.1,0.2,0.2,0.3,0.4
		c-0.4,0.1-0.8,0.3-1.2,0.4C31.5,33.5,31.4,33.4,31.2,33.2z"/>
	<path class="st1" d="M40.9,35.1c-0.3,0.4-0.6,0.8-1,1.3c-0.5,0.1-1.2,0.1-1.9,0.2c0.1,0.5,0.7,0.9,1.3,0.8c0.5-0.1,0.7-0.3,0.5-0.7
		c0.3-0.1,0.5-0.2,0.8-0.3c0.5,0.3,0.9,0.1,1.4-0.2c-0.2-0.4-0.4-0.7-0.7-1C41.3,35.1,40.9,35,40.9,35.1z"/>
	<path class="st1" d="M33.9,31.4c0.4,0,0.7-0.1,1-0.2c0-0.1,0-0.1-0.1-0.2c-0.4,0-0.8,0-1.2,0C33.7,31.1,33.8,31.4,33.9,31.4z"/>
	<path class="st1" d="M34.2,40.2c-0.2,0-0.3,0-0.5,0c-0.5,0-0.9,0.7-1.5,0.3c0,0.1-0.1,0.2-0.1,0.3C32.9,41.1,33.5,40.9,34.2,40.2z"
		/>
</g>
</svg>
